<?xml version="1.0" encoding="UTF-8"?>
<svg xmlns="http://www.w3.org/2000/svg" xmlns:xlink="http://www.w3.org/1999/xlink" viewBox="0 0 144 144" width="144px" height="144px">
<g id="surface120541158">
<path style=" stroke:none;fill-rule:nonzero;fill:rgb(16.078432%,71.372551%,96.470588%);fill-opacity:1;" d="M 72 12 C 38.863281 12 12 38.863281 12 72 C 12 105.136719 38.863281 132 72 132 C 105.136719 132 132 105.136719 132 72 C 132 38.863281 105.136719 12 72 12 Z M 72 12 "/>
<path style=" stroke:none;fill-rule:nonzero;fill:rgb(12.941177%,12.941177%,12.941177%);fill-opacity:1;" d="M 101.851562 45 L 90.613281 102.378906 C 90.613281 102.378906 90.128906 105 86.878906 105 C 85.148438 105 84.257812 104.179688 84.257812 104.179688 L 59.914062 83.980469 L 48.007812 77.976562 L 32.722656 73.910156 C 32.722656 73.910156 30 73.125 30 70.875 C 30 69 32.800781 68.105469 32.800781 68.105469 L 96.746094 42.703125 C 96.742188 42.699219 98.699219 41.996094 100.125 42 C 101 42 102 42.375 102 43.5 C 102 44.25 101.851562 45 101.851562 45 Z M 101.851562 45 "/>
<path style=" stroke:none;fill-rule:nonzero;fill:rgb(16.078432%,71.372551%,96.470588%);fill-opacity:1;" d="M 69 91.515625 L 58.722656 101.636719 C 58.722656 101.636719 58.273438 101.980469 57.679688 101.996094 C 57.472656 102.003906 57.25 101.96875 57.019531 101.867188 L 59.914062 83.972656 Z M 69 91.515625 "/>
<path style=" stroke:none;fill-rule:nonzero;fill:rgb(16.078432%,71.372551%,96.470588%);fill-opacity:1;" d="M 89.691406 54.589844 C 89.183594 53.929688 88.246094 53.808594 87.589844 54.308594 L 48 78 C 48 78 54.316406 95.675781 55.28125 98.734375 C 56.246094 101.800781 57.019531 101.871094 57.019531 101.871094 L 59.914062 83.976562 L 89.410156 56.6875 C 90.070312 56.1875 90.191406 55.246094 89.691406 54.589844 Z M 89.691406 54.589844 "/>
</g>
</svg>
